<svg xmlns="http://www.w3.org/2000/svg" viewBox="3 16 376 78" width="376" height="78" role="img" aria-label="Of Record">
  <defs><linearGradient id="orGrad" x1="0" y1="0" x2="1" y2="1"><stop offset="0" stop-color="#615FFF"/><stop offset="1" stop-color="#9810FA"/></linearGradient></defs>
  <g transform="scale(0.82) translate(2,7)">
    <g fill="none" stroke="#FFFFFF" stroke-width="9">
      <circle cx="60" cy="60" r="43"/>
      <path d="M2 60 H46"/>
      <path d="M74 60 H118"/>
    </g>
    <circle cx="60" cy="60" r="8" fill="url(#orGrad)"/>
  </g>
  <path d="M138.25 58.35Q134.81 58.35 132.08 56.75Q129.36 55.15 127.78 52.15Q126.21 49.14 126.21 44.92Q126.21 40.69 127.78 37.67Q129.36 34.66 132.08 33.06Q134.81 31.46 138.25 31.46Q141.68 31.46 144.40 33.06Q147.11 34.66 148.68 37.67Q150.26 40.69 150.26 44.92Q150.26 49.14 148.68 52.16Q147.11 55.17 144.40 56.76Q141.68 58.35 138.25 58.35ZM138.25 54.15Q140.38 54.15 142.02 53.09Q143.67 52.02 144.60 49.96Q145.53 47.89 145.53 44.92Q145.53 41.92 144.60 39.85Q143.67 37.79 142.02 36.72Q140.38 35.66 138.25 35.66Q136.11 35.66 134.45 36.73Q132.80 37.80 131.86 39.87Q130.92 41.93 130.92 44.92Q130.92 47.89 131.86 49.95Q132.80 52.01 134.45 53.08Q136.11 54.15 138.25 54.15Z M160.46 58.00V31.81H177.23V35.76H165.16V43.62H176.06V47.52H165.16V58.00Z M202.22 58.00V31.81H212.01Q215.02 31.81 217.07 32.86Q219.13 33.92 220.18 35.81Q221.24 37.70 221.24 40.19Q221.24 42.69 220.18 44.54Q219.11 46.38 217.04 47.38Q216.79 47.51 216.53 47.61L222.21 58.00H216.95L211.80 48.38H206.91V58.00ZM206.91 44.50H211.32Q213.10 44.50 214.22 44.00Q215.35 43.50 215.89 42.53Q216.44 41.56 216.44 40.19Q216.44 38.79 215.89 37.79Q215.35 36.80 214.22 36.27Q213.08 35.75 211.29 35.75H206.91Z M231.46 58.00V31.81H248.48V35.76H236.16V42.83H247.56V46.73H236.16V54.04H248.55V58.00Z M270.18 58.35Q266.74 58.35 264.03 56.75Q261.32 55.15 259.76 52.15Q258.19 49.14 258.19 44.92Q258.19 40.69 259.77 37.67Q261.34 34.66 264.06 33.06Q266.77 31.46 270.18 31.46Q272.33 31.46 274.20 32.06Q276.07 32.67 277.54 33.84Q279.01 35.01 279.96 36.70Q280.91 38.38 281.22 40.53H276.49Q276.26 39.35 275.71 38.45Q275.16 37.56 274.33 36.93Q273.50 36.31 272.47 35.98Q271.43 35.66 270.25 35.66Q268.11 35.66 266.45 36.74Q264.79 37.82 263.85 39.89Q262.91 41.95 262.91 44.92Q262.91 47.93 263.85 49.98Q264.80 52.04 266.46 53.10Q268.13 54.15 270.24 54.15Q271.41 54.15 272.45 53.83Q273.49 53.50 274.32 52.88Q275.16 52.25 275.72 51.35Q276.28 50.44 276.49 49.28H281.24Q280.98 51.16 280.09 52.81Q279.20 54.45 277.76 55.70Q276.32 56.95 274.41 57.65Q272.50 58.35 270.18 58.35Z M302.52 58.35Q299.08 58.35 296.35 56.75Q293.63 55.15 292.05 52.15Q290.48 49.14 290.48 44.92Q290.48 40.69 292.05 37.67Q293.63 34.66 296.35 33.06Q299.08 31.46 302.52 31.46Q305.95 31.46 308.66 33.06Q311.38 34.66 312.95 37.67Q314.53 40.69 314.53 44.92Q314.53 49.14 312.95 52.16Q311.38 55.17 308.66 56.76Q305.95 58.35 302.52 58.35ZM302.52 54.15Q304.65 54.15 306.29 53.09Q307.93 52.02 308.87 49.96Q309.80 47.89 309.80 44.92Q309.80 41.92 308.87 39.85Q307.93 37.79 306.29 36.72Q304.65 35.66 302.52 35.66Q300.38 35.66 298.72 36.73Q297.07 37.80 296.13 39.87Q295.19 41.93 295.19 44.92Q295.19 47.89 296.13 49.95Q297.07 52.01 298.72 53.08Q300.38 54.15 302.52 54.15Z M324.73 58.00V31.81H334.52Q337.53 31.81 339.59 32.86Q341.64 33.92 342.70 35.81Q343.75 37.70 343.75 40.19Q343.75 42.69 342.69 44.54Q341.63 46.38 339.55 47.38Q339.31 47.51 339.04 47.61L344.72 58.00H339.46L334.31 48.38H329.43V58.00ZM329.43 44.50H333.84Q335.61 44.50 336.74 44.00Q337.86 43.50 338.41 42.53Q338.95 41.56 338.95 40.19Q338.95 38.79 338.41 37.79Q337.86 36.80 336.73 36.27Q335.60 35.75 333.80 35.75H329.43Z M362.84 58.00H353.98V31.81H363.01Q366.92 31.81 369.71 33.37Q372.51 34.94 374.01 37.87Q375.51 40.81 375.51 44.87Q375.51 48.96 374.01 51.91Q372.51 54.85 369.67 56.43Q366.83 58.00 362.84 58.00ZM358.67 53.94H362.61Q365.35 53.94 367.19 52.93Q369.02 51.92 369.96 49.91Q370.89 47.89 370.89 44.87Q370.89 41.88 369.96 39.88Q369.02 37.87 367.22 36.87Q365.42 35.87 362.73 35.87H358.67Z" fill="#FFFFFF"/>
  <path d="M127.61 75.63V84.00H126.33V75.63Z M134.13 76.73V75.63H140.63V76.73H138.03V84.00H136.74V76.73Z M146.93 86.08 147.42 82.80H148.75L147.83 86.08Z M163.89 84.00V75.63H166.89Q167.85 75.63 168.50 75.99Q169.15 76.35 169.47 76.96Q169.79 77.58 169.79 78.35Q169.79 79.13 169.46 79.74Q169.14 80.36 168.49 80.71Q167.85 81.07 166.88 81.07H165.17V84.00ZM165.17 79.99H166.75Q167.37 79.99 167.75 79.77Q168.13 79.56 168.31 79.19Q168.49 78.82 168.49 78.35Q168.49 77.88 168.31 77.51Q168.13 77.14 167.75 76.94Q167.36 76.73 166.74 76.73H165.17Z M176.36 84.00V75.63H179.36Q180.32 75.63 180.97 75.97Q181.62 76.30 181.94 76.90Q182.26 77.49 182.26 78.26Q182.26 79.04 181.93 79.62Q181.61 80.20 180.96 80.52Q180.85 80.57 180.73 80.62L182.57 84.00H181.12L179.42 80.84Q179.39 80.84 179.35 80.84H177.64V84.00ZM177.64 79.74H179.22Q179.84 79.74 180.22 79.57Q180.60 79.39 180.78 79.06Q180.96 78.73 180.96 78.26Q180.96 77.79 180.78 77.45Q180.60 77.10 180.22 76.92Q179.84 76.73 179.21 76.73H177.64Z M192.39 84.11Q191.31 84.11 190.45 83.60Q189.59 83.08 189.10 82.12Q188.61 81.16 188.61 79.82Q188.61 78.48 189.10 77.52Q189.59 76.55 190.45 76.04Q191.31 75.52 192.39 75.52Q193.47 75.52 194.32 76.04Q195.18 76.55 195.67 77.52Q196.16 78.48 196.16 79.82Q196.16 81.16 195.67 82.12Q195.18 83.08 194.32 83.60Q193.47 84.11 192.39 84.11ZM192.39 82.94Q193.10 82.94 193.67 82.59Q194.23 82.23 194.56 81.53Q194.89 80.83 194.89 79.82Q194.89 78.80 194.56 78.10Q194.23 77.40 193.67 77.05Q193.10 76.69 192.39 76.69Q191.67 76.69 191.10 77.05Q190.54 77.41 190.21 78.11Q189.88 78.81 189.88 79.82Q189.88 80.83 190.21 81.53Q190.54 82.23 191.10 82.58Q191.67 82.94 192.39 82.94Z M202.81 84.00V75.63H205.81Q206.78 75.63 207.42 75.99Q208.07 76.35 208.39 76.96Q208.71 77.58 208.71 78.35Q208.71 79.13 208.38 79.74Q208.06 80.36 207.42 80.71Q206.77 81.07 205.80 81.07H204.09V84.00ZM204.09 79.99H205.68Q206.29 79.99 206.67 79.77Q207.06 79.56 207.23 79.19Q207.41 78.82 207.41 78.35Q207.41 77.88 207.23 77.51Q207.06 77.14 206.67 76.94Q206.29 76.73 205.66 76.73H204.09Z M215.28 84.00V75.63H220.55V76.73H216.56V79.23H220.26V80.32H216.56V82.90H220.58V84.00Z M227.31 84.00V75.63H230.31Q231.27 75.63 231.92 75.97Q232.57 76.30 232.89 76.90Q233.21 77.49 233.21 78.26Q233.21 79.04 232.88 79.62Q232.56 80.20 231.91 80.52Q231.80 80.57 231.68 80.62L233.52 84.00H232.07L230.37 80.84Q230.34 80.84 230.30 80.84H228.59V84.00ZM228.59 79.74H230.17Q230.79 79.74 231.17 79.57Q231.55 79.39 231.73 79.06Q231.91 78.73 231.91 78.26Q231.91 77.79 231.73 77.45Q231.55 77.10 231.17 76.92Q230.78 76.73 230.16 76.73H228.59Z M239.85 84.00V75.63H241.13V82.90H244.92V84.00Z M253.89 84.00V80.67L250.81 75.63H252.30L253.87 78.30Q254.14 78.74 254.34 79.14Q254.44 79.35 254.54 79.60Q254.65 79.34 254.75 79.13Q254.95 78.72 255.20 78.30L256.75 75.63H258.24L255.17 80.67V84.00Z M272.71 84.00V75.63H277.97V76.73H273.99V79.23H277.69V80.32H273.99V82.90H278.01V84.00Z M287.12 84.00 284.09 75.63H285.47L287.10 80.29Q287.28 80.83 287.52 81.61Q287.69 82.21 287.91 82.97Q288.12 82.19 288.30 81.60Q288.53 80.83 288.70 80.29L290.29 75.63H291.67L288.69 84.00Z M299.26 75.63V84.00H297.98V75.63Z M308.92 84.00H306.20V75.63H309.01Q310.24 75.63 311.12 76.13Q312.00 76.63 312.48 77.57Q312.95 78.50 312.95 79.81Q312.95 81.11 312.47 82.05Q312.00 82.99 311.10 83.49Q310.20 84.00 308.92 84.00ZM307.48 82.88H308.85Q309.80 82.88 310.43 82.52Q311.06 82.17 311.37 81.48Q311.69 80.79 311.69 79.81Q311.69 78.82 311.38 78.14Q311.07 77.46 310.45 77.11Q309.84 76.76 308.92 76.76H307.48Z M319.59 84.00V75.63H324.86V76.73H320.87V79.23H324.58V80.32H320.87V82.90H324.90V84.00Z M331.62 84.00V75.63H333.10L336.25 80.61Q336.41 80.86 336.60 81.20Q336.80 81.55 337.02 81.97Q337.14 82.20 337.25 82.46Q337.23 82.21 337.22 81.96Q337.19 81.50 337.18 81.09Q337.17 80.68 337.17 80.40V75.63H338.47V84.00H336.98L334.16 79.55Q333.94 79.18 333.72 78.81Q333.50 78.44 333.24 77.95Q333.06 77.62 332.82 77.18Q332.85 77.57 332.86 77.92Q332.89 78.46 332.90 78.88Q332.92 79.29 332.92 79.54V84.00Z M348.89 84.11Q347.80 84.11 346.95 83.60Q346.10 83.08 345.61 82.12Q345.12 81.16 345.12 79.82Q345.12 78.48 345.61 77.52Q346.10 76.55 346.95 76.04Q347.80 75.52 348.89 75.52Q349.55 75.52 350.13 75.71Q350.71 75.90 351.17 76.27Q351.63 76.63 351.93 77.16Q352.23 77.68 352.34 78.34H351.05Q350.97 77.94 350.77 77.64Q350.57 77.33 350.29 77.12Q350.00 76.90 349.65 76.80Q349.29 76.69 348.90 76.69Q348.18 76.69 347.61 77.05Q347.04 77.41 346.71 78.11Q346.39 78.81 346.39 79.82Q346.39 80.83 346.72 81.53Q347.05 82.23 347.62 82.59Q348.19 82.94 348.90 82.94Q349.29 82.94 349.64 82.83Q349.99 82.73 350.28 82.51Q350.57 82.30 350.77 82.00Q350.97 81.69 351.05 81.29H352.34Q352.25 81.91 351.95 82.42Q351.66 82.94 351.21 83.32Q350.75 83.70 350.17 83.91Q349.58 84.11 348.89 84.11Z M358.94 84.00V75.63H364.21V76.73H360.22V79.23H363.92V80.32H360.22V82.90H364.24V84.00Z M373.68 84.00H370.97V75.63H373.77Q375.00 75.63 375.88 76.13Q376.77 76.63 377.24 77.57Q377.71 78.50 377.71 79.81Q377.71 81.11 377.23 82.05Q376.76 82.99 375.86 83.49Q374.96 84.00 373.68 84.00ZM372.25 82.88H373.62Q374.56 82.88 375.19 82.52Q375.82 82.17 376.14 81.48Q376.45 80.79 376.45 79.81Q376.45 78.82 376.14 78.14Q375.83 77.46 375.21 77.11Q374.60 76.76 373.68 76.76H372.25Z" fill="#FFFFFF" opacity="0.72"/>
</svg>